solid OpenSCAD_Model
  facet normal -0 0.309023 0.951054
    outer loop
      vertex -12 -21.9428 7.83156
      vertex -5.91817 -24 8.5
      vertex -5.91817 -21.9428 7.83156
    endloop
  endfacet
  facet normal 0 0.309023 0.951054
    outer loop
      vertex -5.91817 -24 8.5
      vertex -12 -21.9428 7.83156
      vertex -12 -24 8.5
    endloop
  endfacet
  facet normal 0 0.309023 -0.951054
    outer loop
      vertex -12 -24 1.5
      vertex -5.91817 -21.9428 2.16844
      vertex -5.91817 -24 1.5
    endloop
  endfacet
  facet normal 0 0.309023 -0.951054
    outer loop
      vertex -5.91817 -21.9428 2.16844
      vertex -12 -24 1.5
      vertex -12 -21.9428 2.16844
    endloop
  endfacet
  facet normal 0 1 -0
    outer loop
      vertex -5.91817 -20.6713 3.91844
      vertex -12 -20.6713 6.08156
      vertex -5.91817 -20.6713 6.08156
    endloop
  endfacet
  facet normal 0 1 0
    outer loop
      vertex -12 -20.6713 6.08156
      vertex -5.91817 -20.6713 3.91844
      vertex -12 -20.6713 3.91844
    endloop
  endfacet
  facet normal 0 0.809006 0.587801
    outer loop
      vertex -5.91817 -20.6713 6.08156
      vertex -12 -21.9428 7.83156
      vertex -5.91817 -21.9428 7.83156
    endloop
  endfacet
  facet normal 0 0.809006 0.587801
    outer loop
      vertex -12 -21.9428 7.83156
      vertex -5.91817 -20.6713 6.08156
      vertex -12 -20.6713 6.08156
    endloop
  endfacet
  facet normal -1 0 0
    outer loop
      vertex -12 -22.5734 4.53647
      vertex -12 -20.6713 3.91844
      vertex -12 -21.9428 2.16844
    endloop
  endfacet
  facet normal -1 0 0
    outer loop
      vertex -12 -20.6713 3.91844
      vertex -12 -22.5734 4.53647
      vertex -12 -20.6713 6.08156
    endloop
  endfacet
  facet normal -1 0 0
    outer loop
      vertex -12 -22.5734 5.46353
      vertex -12 -20.6713 6.08156
      vertex -12 -22.5734 4.53647
    endloop
  endfacet
  facet normal -1 0 0
    outer loop
      vertex -12 -21.9428 2.16844
      vertex -12 -23.1183 3.78647
      vertex -12 -22.5734 4.53647
    endloop
  endfacet
  facet normal -1 0 0
    outer loop
      vertex -12 -24 1.5
      vertex -12 -23.1183 3.78647
      vertex -12 -21.9428 2.16844
    endloop
  endfacet
  facet normal -1 0 0
    outer loop
      vertex -12 -24 1.5
      vertex -12 -24 3.5
      vertex -12 -23.1183 3.78647
    endloop
  endfacet
  facet normal -1 0 0
    outer loop
      vertex -12 -24 1.5
      vertex -12 -24.8817 3.78647
      vertex -12 -24 3.5
    endloop
  endfacet
  facet normal -1 0 0
    outer loop
      vertex -12 -26.0572 2.16844
      vertex -12 -24.8817 3.78647
      vertex -12 -24 1.5
    endloop
  endfacet
  facet normal -1 0 0
    outer loop
      vertex -12 -27.3287 3.91844
      vertex -12 -25.4266 4.53647
      vertex -12 -26.0572 2.16844
    endloop
  endfacet
  facet normal -1 -0 0
    outer loop
      vertex -12 -24.8817 3.78647
      vertex -12 -26.0572 2.16844
      vertex -12 -25.4266 4.53647
    endloop
  endfacet
  facet normal -1 -0 0
    outer loop
      vertex -12 -20.6713 6.08156
      vertex -12 -22.5734 5.46353
      vertex -12 -21.9428 7.83156
    endloop
  endfacet
  facet normal -1 0 0
    outer loop
      vertex -12 -23.1183 6.21353
      vertex -12 -21.9428 7.83156
      vertex -12 -22.5734 5.46353
    endloop
  endfacet
  facet normal -1 0 0
    outer loop
      vertex -12 -24 6.5
      vertex -12 -21.9428 7.83156
      vertex -12 -23.1183 6.21353
    endloop
  endfacet
  facet normal -1 0 0
    outer loop
      vertex -12 -24 6.5
      vertex -12 -24 8.5
      vertex -12 -21.9428 7.83156
    endloop
  endfacet
  facet normal -1 0 0
    outer loop
      vertex -12 -24.8817 6.21353
      vertex -12 -24 8.5
      vertex -12 -24 6.5
    endloop
  endfacet
  facet normal -1 0 0
    outer loop
      vertex -12 -26.0572 7.83156
      vertex -12 -24.8817 6.21353
      vertex -12 -25.4266 5.46353
    endloop
  endfacet
  facet normal -1 0 0
    outer loop
      vertex -12 -24.8817 6.21353
      vertex -12 -26.0572 7.83156
      vertex -12 -24 8.5
    endloop
  endfacet
  facet normal -1 -0 0
    outer loop
      vertex -12 -25.4266 4.53647
      vertex -12 -27.3287 3.91844
      vertex -12 -25.4266 5.46353
    endloop
  endfacet
  facet normal -1 0 0
    outer loop
      vertex -12 -27.3287 6.08156
      vertex -12 -25.4266 5.46353
      vertex -12 -27.3287 3.91844
    endloop
  endfacet
  facet normal -1 0 0
    outer loop
      vertex -12 -25.4266 5.46353
      vertex -12 -27.3287 6.08156
      vertex -12 -26.0572 7.83156
    endloop
  endfacet
  facet normal 0 0.809006 -0.587801
    outer loop
      vertex -5.91817 -21.9428 2.16844
      vertex -12 -20.6713 3.91844
      vertex -5.91817 -20.6713 3.91844
    endloop
  endfacet
  facet normal 0 0.809006 -0.587801
    outer loop
      vertex -12 -20.6713 3.91844
      vertex -5.91817 -21.9428 2.16844
      vertex -12 -21.9428 2.16844
    endloop
  endfacet
  facet normal 0 -1 0
    outer loop
      vertex -12 -27.3287 3.91844
      vertex -5.91817 -27.3287 6.08156
      vertex -12 -27.3287 6.08156
    endloop
  endfacet
  facet normal 0 -1 -0
    outer loop
      vertex -5.91817 -27.3287 6.08156
      vertex -12 -27.3287 3.91844
      vertex -5.91817 -27.3287 3.91844
    endloop
  endfacet
  facet normal 0 -0.809006 0.587801
    outer loop
      vertex -12 -27.3287 6.08156
      vertex -5.91817 -26.0572 7.83156
      vertex -12 -26.0572 7.83156
    endloop
  endfacet
  facet normal 0 -0.809006 0.587801
    outer loop
      vertex -5.91817 -26.0572 7.83156
      vertex -12 -27.3287 6.08156
      vertex -5.91817 -27.3287 6.08156
    endloop
  endfacet
  facet normal 0 -0.309023 0.951054
    outer loop
      vertex -12 -24 8.5
      vertex -5.91817 -26.0572 7.83156
      vertex -5.91817 -24 8.5
    endloop
  endfacet
  facet normal 0 -0.309023 0.951054
    outer loop
      vertex -5.91817 -26.0572 7.83156
      vertex -12 -24 8.5
      vertex -12 -26.0572 7.83156
    endloop
  endfacet
  facet normal 0 -0.309023 -0.951054
    outer loop
      vertex -12 -26.0572 2.16844
      vertex -5.91817 -24 1.5
      vertex -5.91817 -26.0572 2.16844
    endloop
  endfacet
  facet normal -0 -0.309023 -0.951054
    outer loop
      vertex -5.91817 -24 1.5
      vertex -12 -26.0572 2.16844
      vertex -12 -24 1.5
    endloop
  endfacet
  facet normal 0 -0.809006 -0.587801
    outer loop
      vertex -12 -26.0572 2.16844
      vertex -5.91817 -27.3287 3.91844
      vertex -12 -27.3287 3.91844
    endloop
  endfacet
  facet normal 0 -0.809006 -0.587801
    outer loop
      vertex -5.91817 -27.3287 3.91844
      vertex -12 -26.0572 2.16844
      vertex -5.91817 -26.0572 2.16844
    endloop
  endfacet
  facet normal -0 0.309023 0.951054
    outer loop
      vertex -12 26.0572 9.13156
      vertex -5.91817 24 9.8
      vertex -5.91817 26.0572 9.13156
    endloop
  endfacet
  facet normal 0 0.309023 0.951054
    outer loop
      vertex -5.91817 24 9.8
      vertex -12 26.0572 9.13156
      vertex -12 24 9.8
    endloop
  endfacet
  facet normal 0 0.809006 -0.587801
    outer loop
      vertex -5.91817 26.0572 3.46844
      vertex -12 27.3287 5.21844
      vertex -5.91817 27.3287 5.21844
    endloop
  endfacet
  facet normal 0 0.809006 -0.587801
    outer loop
      vertex -12 27.3287 5.21844
      vertex -5.91817 26.0572 3.46844
      vertex -12 26.0572 3.46844
    endloop
  endfacet
  facet normal 0 0.809006 0.587801
    outer loop
      vertex -5.91817 27.3287 7.38156
      vertex -12 26.0572 9.13156
      vertex -5.91817 26.0572 9.13156
    endloop
  endfacet
  facet normal 0 0.809006 0.587801
    outer loop
      vertex -12 26.0572 9.13156
      vertex -5.91817 27.3287 7.38156
      vertex -12 27.3287 7.38156
    endloop
  endfacet
  facet normal -1 0 0
    outer loop
      vertex -12 25.4266 5.83647
      vertex -12 27.3287 5.21844
      vertex -12 26.0572 3.46844
    endloop
  endfacet
  facet normal -1 0 0
    outer loop
      vertex -12 27.3287 5.21844
      vertex -12 25.4266 5.83647
      vertex -12 27.3287 7.38156
    endloop
  endfacet
  facet normal -1 0 0
    outer loop
      vertex -12 25.4266 6.76353
      vertex -12 27.3287 7.38156
      vertex -12 25.4266 5.83647
    endloop
  endfacet
  facet normal -1 0 0
    outer loop
      vertex -12 26.0572 3.46844
      vertex -12 24.8817 5.08647
      vertex -12 25.4266 5.83647
    endloop
  endfacet
  facet normal -1 0 0
    outer loop
      vertex -12 24 2.8
      vertex -12 24.8817 5.08647
      vertex -12 26.0572 3.46844
    endloop
  endfacet
  facet normal -1 0 0
    outer loop
      vertex -12 24 2.8
      vertex -12 24 4.8
      vertex -12 24.8817 5.08647
    endloop
  endfacet
  facet normal -1 0 0
    outer loop
      vertex -12 24 2.8
      vertex -12 23.1183 5.08647
      vertex -12 24 4.8
    endloop
  endfacet
  facet normal -1 0 0
    outer loop
      vertex -12 21.9428 3.46844
      vertex -12 23.1183 5.08647
      vertex -12 24 2.8
    endloop
  endfacet
  facet normal -1 0 0
    outer loop
      vertex -12 20.6713 5.21844
      vertex -12 22.5734 5.83647
      vertex -12 21.9428 3.46844
    endloop
  endfacet
  facet normal -1 -0 0
    outer loop
      vertex -12 23.1183 5.08647
      vertex -12 21.9428 3.46844
      vertex -12 22.5734 5.83647
    endloop
  endfacet
  facet normal -1 -0 0
    outer loop
      vertex -12 27.3287 7.38156
      vertex -12 25.4266 6.76353
      vertex -12 26.0572 9.13156
    endloop
  endfacet
  facet normal -1 0 0
    outer loop
      vertex -12 24.8817 7.51353
      vertex -12 26.0572 9.13156
      vertex -12 25.4266 6.76353
    endloop
  endfacet
  facet normal -1 0 0
    outer loop
      vertex -12 24 7.8
      vertex -12 26.0572 9.13156
      vertex -12 24.8817 7.51353
    endloop
  endfacet
  facet normal -1 0 0
    outer loop
      vertex -12 24 7.8
      vertex -12 24 9.8
      vertex -12 26.0572 9.13156
    endloop
  endfacet
  facet normal -1 0 0
    outer loop
      vertex -12 23.1183 7.51353
      vertex -12 24 9.8
      vertex -12 24 7.8
    endloop
  endfacet
  facet normal -1 0 0
    outer loop
      vertex -12 21.9428 9.13156
      vertex -12 23.1183 7.51353
      vertex -12 22.5734 6.76353
    endloop
  endfacet
  facet normal -1 0 0
    outer loop
      vertex -12 23.1183 7.51353
      vertex -12 21.9428 9.13156
      vertex -12 24 9.8
    endloop
  endfacet
  facet normal -1 -0 0
    outer loop
      vertex -12 22.5734 5.83647
      vertex -12 20.6713 5.21844
      vertex -12 22.5734 6.76353
    endloop
  endfacet
  facet normal -1 0 0
    outer loop
      vertex -12 20.6713 7.38156
      vertex -12 22.5734 6.76353
      vertex -12 20.6713 5.21844
    endloop
  endfacet
  facet normal -1 0 0
    outer loop
      vertex -12 22.5734 6.76353
      vertex -12 20.6713 7.38156
      vertex -12 21.9428 9.13156
    endloop
  endfacet
  facet normal 0 0.309023 -0.951054
    outer loop
      vertex -12 24 2.8
      vertex -5.91817 26.0572 3.46844
      vertex -5.91817 24 2.8
    endloop
  endfacet
  facet normal 0 0.309023 -0.951054
    outer loop
      vertex -5.91817 26.0572 3.46844
      vertex -12 24 2.8
      vertex -12 26.0572 3.46844
    endloop
  endfacet
  facet normal 0 -0.309023 0.951054
    outer loop
      vertex -12 24 9.8
      vertex -5.91817 21.9428 9.13156
      vertex -5.91817 24 9.8
    endloop
  endfacet
  facet normal 0 -0.309023 0.951054
    outer loop
      vertex -5.91817 21.9428 9.13156
      vertex -12 24 9.8
      vertex -12 21.9428 9.13156
    endloop
  endfacet
  facet normal 0 1 -0
    outer loop
      vertex -5.91817 27.3287 5.21844
      vertex -12 27.3287 7.38156
      vertex -5.91817 27.3287 7.38156
    endloop
  endfacet
  facet normal 0 1 0
    outer loop
      vertex -12 27.3287 7.38156
      vertex -5.91817 27.3287 5.21844
      vertex -12 27.3287 5.21844
    endloop
  endfacet
  facet normal 0 -0.309023 -0.951054
    outer loop
      vertex -12 21.9428 3.46844
      vertex -5.91817 24 2.8
      vertex -5.91817 21.9428 3.46844
    endloop
  endfacet
  facet normal -0 -0.309023 -0.951054
    outer loop
      vertex -5.91817 24 2.8
      vertex -12 21.9428 3.46844
      vertex -12 24 2.8
    endloop
  endfacet
  facet normal 0 -0.809006 -0.587801
    outer loop
      vertex -12 21.9428 3.46844
      vertex -5.91817 20.6713 5.21844
      vertex -12 20.6713 5.21844
    endloop
  endfacet
  facet normal 0 -0.809006 -0.587801
    outer loop
      vertex -5.91817 20.6713 5.21844
      vertex -12 21.9428 3.46844
      vertex -5.91817 21.9428 3.46844
    endloop
  endfacet
  facet normal 0 -0.809006 0.587801
    outer loop
      vertex -12 20.6713 7.38156
      vertex -5.91817 21.9428 9.13156
      vertex -12 21.9428 9.13156
    endloop
  endfacet
  facet normal 0 -0.809006 0.587801
    outer loop
      vertex -5.91817 21.9428 9.13156
      vertex -12 20.6713 7.38156
      vertex -5.91817 20.6713 7.38156
    endloop
  endfacet
  facet normal 0 -1 0
    outer loop
      vertex -12 20.6713 5.21844
      vertex -5.91817 20.6713 7.38156
      vertex -12 20.6713 7.38156
    endloop
  endfacet
  facet normal 0 -1 -0
    outer loop
      vertex -5.91817 20.6713 7.38156
      vertex -12 20.6713 5.21844
      vertex -5.91817 20.6713 5.21844
    endloop
  endfacet
  facet normal 0.879476 -0.475943 0
    outer loop
      vertex 4.73484 -33.6853 11.3
      vertex 5.6749 -31.9482 0
      vertex 5.6749 -31.9482 11.3
    endloop
  endfacet
  facet normal 0.879476 -0.475943 0
    outer loop
      vertex 5.6749 -31.9482 0
      vertex 4.73484 -33.6853 11.3
      vertex 4.73484 -33.6853 0
    endloop
  endfacet
  facet normal -1 0 0
    outer loop
      vertex -5.91817 -20.6713 6.08156
      vertex -5.91817 -18.8193 0
      vertex -5.91817 -20.6713 3.91844
    endloop
  endfacet
  facet normal -1 0 0
    outer loop
      vertex -5.91817 -18.8193 0
      vertex -5.91817 -21.9428 2.16844
      vertex -5.91817 -20.6713 3.91844
    endloop
  endfacet
  facet normal -1 0 0
    outer loop
      vertex -5.91817 -18.8193 0
      vertex -5.91817 -24 1.5
      vertex -5.91817 -21.9428 2.16844
    endloop
  endfacet
  facet normal -1 -0 0
    outer loop
      vertex -5.91817 -27.3287 3.91844
      vertex -5.91817 -30.9876 0
      vertex -5.91817 -27.3287 6.08156
    endloop
  endfacet
  facet normal -1 -0 0
    outer loop
      vertex -5.91817 -26.0572 2.16844
      vertex -5.91817 -30.9876 0
      vertex -5.91817 -27.3287 3.91844
    endloop
  endfacet
  facet normal -1 -0 0
    outer loop
      vertex -5.91817 -24 1.5
      vertex -5.91817 -30.9876 0
      vertex -5.91817 -26.0572 2.16844
    endloop
  endfacet
  facet normal -1 0 0
    outer loop
      vertex -5.91817 -30.9876 0
      vertex -5.91817 -24 1.5
      vertex -5.91817 -18.8193 0
    endloop
  endfacet
  facet normal -1 0 0
    outer loop
      vertex -5.91817 -18.8193 0
      vertex -5.91817 -20.6713 6.08156
      vertex -5.91817 -18.8193 11.3
    endloop
  endfacet
  facet normal -1 0 0
    outer loop
      vertex -5.91817 -21.9428 7.83156
      vertex -5.91817 -18.8193 11.3
      vertex -5.91817 -20.6713 6.08156
    endloop
  endfacet
  facet normal -1 0 0
    outer loop
      vertex -5.91817 -24 8.5
      vertex -5.91817 -18.8193 11.3
      vertex -5.91817 -21.9428 7.83156
    endloop
  endfacet
  facet normal -1 0 0
    outer loop
      vertex -5.91817 -30.9876 11.3
      vertex -5.91817 -24 8.5
      vertex -5.91817 -26.0572 7.83156
    endloop
  endfacet
  facet normal -1 0 0
    outer loop
      vertex -5.91817 -24 8.5
      vertex -5.91817 -30.9876 11.3
      vertex -5.91817 -18.8193 11.3
    endloop
  endfacet
  facet normal -1 0 0
    outer loop
      vertex -5.91817 -27.3287 6.08156
      vertex -5.91817 -30.9876 11.3
      vertex -5.91817 -26.0572 7.83156
    endloop
  endfacet
  facet normal -1 0 0
    outer loop
      vertex -5.91817 -30.9876 11.3
      vertex -5.91817 -27.3287 6.08156
      vertex -5.91817 -30.9876 0
    endloop
  endfacet
  facet normal -1 0 0
    outer loop
      vertex -5.91817 30.9876 0
      vertex -5.91817 27.3287 5.21844
      vertex -5.91817 30.9876 11.3
    endloop
  endfacet
  facet normal -1 0 0
    outer loop
      vertex -5.91817 30.9876 0
      vertex -5.91817 26.0572 3.46844
      vertex -5.91817 27.3287 5.21844
    endloop
  endfacet
  facet normal -1 0 0
    outer loop
      vertex -5.91817 30.9876 0
      vertex -5.91817 24 2.8
      vertex -5.91817 26.0572 3.46844
    endloop
  endfacet
  facet normal -1 0 0
    outer loop
      vertex -5.91817 18.8193 0
      vertex -5.91817 24 2.8
      vertex -5.91817 30.9876 0
    endloop
  endfacet
  facet normal -1 0 0
    outer loop
      vertex -5.91817 18.8193 11.3
      vertex -5.91817 20.6713 5.21844
      vertex -5.91817 18.8193 0
    endloop
  endfacet
  facet normal -1 -0 0
    outer loop
      vertex -5.91817 21.9428 3.46844
      vertex -5.91817 18.8193 0
      vertex -5.91817 20.6713 5.21844
    endloop
  endfacet
  facet normal -1 -0 0
    outer loop
      vertex -5.91817 24 2.8
      vertex -5.91817 18.8193 0
      vertex -5.91817 21.9428 3.46844
    endloop
  endfacet
  facet normal -1 0 0
    outer loop
      vertex -5.91817 27.3287 7.38156
      vertex -5.91817 30.9876 11.3
      vertex -5.91817 27.3287 5.21844
    endloop
  endfacet
  facet normal -1 0 0
    outer loop
      vertex -5.91817 26.0572 9.13156
      vertex -5.91817 30.9876 11.3
      vertex -5.91817 27.3287 7.38156
    endloop
  endfacet
  facet normal -1 0 0
    outer loop
      vertex -5.91817 24 9.8
      vertex -5.91817 30.9876 11.3
      vertex -5.91817 26.0572 9.13156
    endloop
  endfacet
  facet normal -1 0 0
    outer loop
      vertex -5.91817 24 9.8
      vertex -5.91817 18.8193 11.3
      vertex -5.91817 30.9876 11.3
    endloop
  endfacet
  facet normal -1 0 0
    outer loop
      vertex -5.91817 21.9428 9.13156
      vertex -5.91817 18.8193 11.3
      vertex -5.91817 24 9.8
    endloop
  endfacet
  facet normal -1 0 0
    outer loop
      vertex -5.91817 20.6713 7.38156
      vertex -5.91817 18.8193 11.3
      vertex -5.91817 21.9428 9.13156
    endloop
  endfacet
  facet normal -1 0 0
    outer loop
      vertex -5.91817 20.6713 5.21844
      vertex -5.91817 18.8193 11.3
      vertex -5.91817 20.6713 7.38156
    endloop
  endfacet
  facet normal -0.78913 -0.614226 0
    outer loop
      vertex -4.06369 -34.4143 0
      vertex -5.27684 -32.8557 11.3
      vertex -5.27684 -32.8557 0
    endloop
  endfacet
  facet normal -0.78913 -0.614226 0
    outer loop
      vertex -5.27684 -32.8557 11.3
      vertex -4.06369 -34.4143 0
      vertex -4.06369 -34.4143 11.3
    endloop
  endfacet
  facet normal 0.986361 0.164596 0
    outer loop
      vertex 6 30 11.3
      vertex 5.6749 31.9482 0
      vertex 5.6749 31.9482 11.3
    endloop
  endfacet
  facet normal 0.986361 0.164596 0
    outer loop
      vertex 5.6749 31.9482 0
      vertex 6 30 11.3
      vertex 6 30 0
    endloop
  endfacet
  facet normal 0.0825768 -0.996585 0
    outer loop
      vertex -0.495476 -35.9795 0
      vertex 1.47291 -35.8164 11.3
      vertex -0.495476 -35.9795 11.3
    endloop
  endfacet
  facet normal 0.0825768 -0.996585 0
    outer loop
      vertex 1.47291 -35.8164 11.3
      vertex -0.495476 -35.9795 0
      vertex 1.47291 -35.8164 0
    endloop
  endfacet
  facet normal 0 0 -1
    outer loop
      vertex 3.54182 -31.8589 0
      vertex 5.6749 -31.9482 0
      vertex 4.73484 -33.6853 0
    endloop
  endfacet
  facet normal 0 -0 -1
    outer loop
      vertex 4 -30 0
      vertex 5.6749 -31.9482 0
      vertex 3.54182 -31.8589 0
    endloop
  endfacet
  facet normal 0 0 -1
    outer loop
      vertex 5.6749 -31.9482 0
      vertex 4 -30 0
      vertex 6 -30 0
    endloop
  endfacet
  facet normal 0 0 -1
    outer loop
      vertex 2.27226 -33.2919 0
      vertex 4.73484 -33.6853 0
      vertex 3.28169 -35.023 0
    endloop
  endfacet
  facet normal 0 0 -1
    outer loop
      vertex 4.73484 -33.6853 0
      vertex 2.27226 -33.2919 0
      vertex 3.54182 -31.8589 0
    endloop
  endfacet
  facet normal 0 0 -1
    outer loop
      vertex 1.47291 -35.8164 0
      vertex 2.27226 -33.2919 0
      vertex 3.28169 -35.023 0
    endloop
  endfacet
  facet normal 0 0 -1
    outer loop
      vertex 1.47291 -35.8164 0
      vertex 0.482146 -33.9708 0
      vertex 2.27226 -33.2919 0
    endloop
  endfacet
  facet normal 0 0 -1
    outer loop
      vertex -0.495476 -35.9795 0
      vertex 0.482146 -33.9708 0
      vertex 1.47291 -35.8164 0
    endloop
  endfacet
  facet normal 0 0 -1
    outer loop
      vertex -0.495476 -35.9795 0
      vertex -1.41842 -33.7401 0
      vertex 0.482146 -33.9708 0
    endloop
  endfacet
  facet normal 0 0 -1
    outer loop
      vertex -2.41017 -35.4946 0
      vertex -1.41842 -33.7401 0
      vertex -0.495476 -35.9795 0
    endloop
  endfacet
  facet normal 0 0 -1
    outer loop
      vertex -4.06369 -34.4143 0
      vertex -1.41842 -33.7401 0
      vertex -2.41017 -35.4946 0
    endloop
  endfacet
  facet normal -0 0 -1
    outer loop
      vertex -1.41842 -33.7401 0
      vertex -4.06369 -34.4143 0
      vertex -2.99404 -32.6525 0
    endloop
  endfacet
  facet normal 0 0 -1
    outer loop
      vertex -5.27684 -32.8557 0
      vertex -2.99404 -32.6525 0
      vertex -4.06369 -34.4143 0
    endloop
  endfacet
  facet normal -0 0 -1
    outer loop
      vertex -2.99404 -32.6525 0
      vertex -5.27684 -32.8557 0
      vertex -3.88377 -30.9573 0
    endloop
  endfacet
  facet normal 0 0 -1
    outer loop
      vertex -5.91817 -18.8193 0
      vertex -3.88377 -30.9573 0
      vertex -5.91817 -30.9876 0
    endloop
  endfacet
  facet normal 0 0 -1
    outer loop
      vertex -3.88377 -30.9573 0
      vertex -5.27684 -32.8557 0
      vertex -5.91817 -30.9876 0
    endloop
  endfacet
  facet normal 0 0 -1
    outer loop
      vertex -3.88377 -30.9573 0
      vertex -5.91817 -18.8193 0
      vertex -3.88377 -16.8062 0
    endloop
  endfacet
  facet normal 0 0 -1
    outer loop
      vertex -3.88377 -16.8062 0
      vertex -5.91817 -18.8193 0
      vertex -4.31785 -16.9708 0
    endloop
  endfacet
  facet normal 0 0 -1
    outer loop
      vertex -5.91817 -18.8193 0
      vertex -6.21842 -16.7401 0
      vertex -4.31785 -16.9708 0
    endloop
  endfacet
  facet normal 0 0 -1
    outer loop
      vertex -6.31785 -18.9708 0
      vertex -6.21842 -16.7401 0
      vertex -5.91817 -18.8193 0
    endloop
  endfacet
  facet normal 0 0 -1
    outer loop
      vertex -8.21842 -18.7401 0
      vertex -6.21842 -16.7401 0
      vertex -6.31785 -18.9708 0
    endloop
  endfacet
  facet normal -0 0 -1
    outer loop
      vertex -6.21842 -16.7401 0
      vertex -8.21842 -18.7401 0
      vertex -7.79404 -15.6525 0
    endloop
  endfacet
  facet normal 0 0 -1
    outer loop
      vertex -9.79404 -17.6525 0
      vertex -7.79404 -15.6525 0
      vertex -8.21842 -18.7401 0
    endloop
  endfacet
  facet normal -0 0 -1
    outer loop
      vertex -7.79404 -15.6525 0
      vertex -10.6838 -15.9573 0
      vertex -8.68377 -13.9573 0
    endloop
  endfacet
  facet normal 0 0 -1
    outer loop
      vertex -10.6838 -15.9573 0
      vertex -7.79404 -15.6525 0
      vertex -9.79404 -17.6525 0
    endloop
  endfacet
  facet normal 0 0 -1
    outer loop
      vertex -5.91817 18.8193 0
      vertex -3.88377 30.9573 0
      vertex -3.88377 16.8062 0
    endloop
  endfacet
  facet normal 0 0 -1
    outer loop
      vertex -5.91817 18.8193 0
      vertex -3.88377 16.8062 0
      vertex -4.31785 16.9708 0
    endloop
  endfacet
  facet normal 0 -0 -1
    outer loop
      vertex -5.27684 32.8557 0
      vertex -3.88377 30.9573 0
      vertex -5.91817 30.9876 0
    endloop
  endfacet
  facet normal -0 0 -1
    outer loop
      vertex -3.88377 30.9573 0
      vertex -5.91817 18.8193 0
      vertex -5.91817 30.9876 0
    endloop
  endfacet
  facet normal 0 0 -1
    outer loop
      vertex -6.21842 16.7401 0
      vertex -5.91817 18.8193 0
      vertex -4.31785 16.9708 0
    endloop
  endfacet
  facet normal 0 0 -1
    outer loop
      vertex -6.21842 16.7401 0
      vertex -6.31785 18.9708 0
      vertex -5.91817 18.8193 0
    endloop
  endfacet
  facet normal 0 0 -1
    outer loop
      vertex -8.21842 18.7401 0
      vertex -6.21842 16.7401 0
      vertex -7.79404 15.6525 0
    endloop
  endfacet
  facet normal 0 0 -1
    outer loop
      vertex -6.21842 16.7401 0
      vertex -8.21842 18.7401 0
      vertex -6.31785 18.9708 0
    endloop
  endfacet
  facet normal 0 0 -1
    outer loop
      vertex -10.6838 15.9573 0
      vertex -7.79404 15.6525 0
      vertex -8.68377 13.9573 0
    endloop
  endfacet
  facet normal 0 0 -1
    outer loop
      vertex -7.79404 15.6525 0
      vertex -9.79404 17.6525 0
      vertex -8.21842 18.7401 0
    endloop
  endfacet
  facet normal -0 0 -1
    outer loop
      vertex -8.68377 -13.9573 0
      vertex -10.6838 -15.9573 0
      vertex -8.68377 13.9573 0
    endloop
  endfacet
  facet normal 0 0 -1
    outer loop
      vertex -10.6838 15.9573 0
      vertex -8.68377 13.9573 0
      vertex -10.6838 -15.9573 0
    endloop
  endfacet
  facet normal 0 0 -1
    outer loop
      vertex -7.79404 15.6525 0
      vertex -10.6838 15.9573 0
      vertex -9.79404 17.6525 0
    endloop
  endfacet
  facet normal 0 0 -1
    outer loop
      vertex 4 30 0
      vertex 5.6749 31.9482 0
      vertex 6 30 0
    endloop
  endfacet
  facet normal 0 0 -1
    outer loop
      vertex 5.6749 31.9482 0
      vertex 4 30 0
      vertex 3.54182 31.8589 0
    endloop
  endfacet
  facet normal -0 0 -1
    outer loop
      vertex 5.6749 31.9482 0
      vertex 3.54182 31.8589 0
      vertex 4.73484 33.6853 0
    endloop
  endfacet
  facet normal 0 0 -1
    outer loop
      vertex 2.27226 33.2919 0
      vertex 4.73484 33.6853 0
      vertex 3.54182 31.8589 0
    endloop
  endfacet
  facet normal -0 0 -1
    outer loop
      vertex 4.73484 33.6853 0
      vertex 2.27226 33.2919 0
      vertex 3.28169 35.023 0
    endloop
  endfacet
  facet normal 0 0 -1
    outer loop
      vertex 2.27226 33.2919 0
      vertex 1.47291 35.8164 0
      vertex 3.28169 35.023 0
    endloop
  endfacet
  facet normal 0 0 -1
    outer loop
      vertex 0.482146 33.9708 0
      vertex 1.47291 35.8164 0
      vertex 2.27226 33.2919 0
    endloop
  endfacet
  facet normal 0 0 -1
    outer loop
      vertex 0.482146 33.9708 0
      vertex -0.495476 35.9795 0
      vertex 1.47291 35.8164 0
    endloop
  endfacet
  facet normal 0 0 -1
    outer loop
      vertex -1.41842 33.7401 0
      vertex -0.495476 35.9795 0
      vertex 0.482146 33.9708 0
    endloop
  endfacet
  facet normal 0 0 -1
    outer loop
      vertex -1.41842 33.7401 0
      vertex -2.41017 35.4946 0
      vertex -0.495476 35.9795 0
    endloop
  endfacet
  facet normal 0 0 -1
    outer loop
      vertex -4.06369 34.4143 0
      vertex -1.41842 33.7401 0
      vertex -2.99404 32.6525 0
    endloop
  endfacet
  facet normal 0 0 -1
    outer loop
      vertex -4.06369 34.4143 0
      vertex -2.99404 32.6525 0
      vertex -3.88377 30.9573 0
    endloop
  endfacet
  facet normal 0 0 -1
    outer loop
      vertex -1.41842 33.7401 0
      vertex -4.06369 34.4143 0
      vertex -2.41017 35.4946 0
    endloop
  endfacet
  facet normal 0 0 -1
    outer loop
      vertex -3.88377 30.9573 0
      vertex -5.27684 32.8557 0
      vertex -4.06369 34.4143 0
    endloop
  endfacet
  facet normal 0 0 1
    outer loop
      vertex 3.54182 31.8589 11.3
      vertex 5.6749 31.9482 11.3
      vertex 4.73484 33.6853 11.3
    endloop
  endfacet
  facet normal 0 -0 1
    outer loop
      vertex 4 30 11.3
      vertex 5.6749 31.9482 11.3
      vertex 3.54182 31.8589 11.3
    endloop
  endfacet
  facet normal 0 0 1
    outer loop
      vertex 5.6749 31.9482 11.3
      vertex 4 30 11.3
      vertex 6 30 11.3
    endloop
  endfacet
  facet normal 0 0 1
    outer loop
      vertex 2.27226 33.2919 11.3
      vertex 4.73484 33.6853 11.3
      vertex 3.28169 35.023 11.3
    endloop
  endfacet
  facet normal 0 0 1
    outer loop
      vertex 4.73484 33.6853 11.3
      vertex 2.27226 33.2919 11.3
      vertex 3.54182 31.8589 11.3
    endloop
  endfacet
  facet normal 0 0 1
    outer loop
      vertex 1.47291 35.8164 11.3
      vertex 2.27226 33.2919 11.3
      vertex 3.28169 35.023 11.3
    endloop
  endfacet
  facet normal 0 0 1
    outer loop
      vertex 1.47291 35.8164 11.3
      vertex 0.482146 33.9708 11.3
      vertex 2.27226 33.2919 11.3
    endloop
  endfacet
  facet normal 0 0 1
    outer loop
      vertex -0.495476 35.9795 11.3
      vertex 0.482146 33.9708 11.3
      vertex 1.47291 35.8164 11.3
    endloop
  endfacet
  facet normal 0 0 1
    outer loop
      vertex -0.495476 35.9795 11.3
      vertex -1.41842 33.7401 11.3
      vertex 0.482146 33.9708 11.3
    endloop
  endfacet
  facet normal -0 0 1
    outer loop
      vertex -2.41017 35.4946 11.3
      vertex -1.41842 33.7401 11.3
      vertex -0.495476 35.9795 11.3
    endloop
  endfacet
  facet normal -0 0 1
    outer loop
      vertex -4.06369 34.4143 11.3
      vertex -1.41842 33.7401 11.3
      vertex -2.41017 35.4946 11.3
    endloop
  endfacet
  facet normal 0 0 1
    outer loop
      vertex -1.41842 33.7401 11.3
      vertex -4.06369 34.4143 11.3
      vertex -2.99404 32.6525 11.3
    endloop
  endfacet
  facet normal -0 0 1
    outer loop
      vertex -5.27684 32.8557 11.3
      vertex -2.99404 32.6525 11.3
      vertex -4.06369 34.4143 11.3
    endloop
  endfacet
  facet normal 0 0 1
    outer loop
      vertex -2.99404 32.6525 11.3
      vertex -5.27684 32.8557 11.3
      vertex -3.88377 30.9573 11.3
    endloop
  endfacet
  facet normal 0 0 1
    outer loop
      vertex -5.91817 18.8193 11.3
      vertex -3.88377 30.9573 11.3
      vertex -5.91817 30.9876 11.3
    endloop
  endfacet
  facet normal 0 0 1
    outer loop
      vertex -3.88377 30.9573 11.3
      vertex -5.27684 32.8557 11.3
      vertex -5.91817 30.9876 11.3
    endloop
  endfacet
  facet normal 0 0 1
    outer loop
      vertex -3.88377 30.9573 11.3
      vertex -5.91817 18.8193 11.3
      vertex -3.88377 16.8062 11.3
    endloop
  endfacet
  facet normal 0 0 1
    outer loop
      vertex -3.88377 16.8062 11.3
      vertex -5.91817 18.8193 11.3
      vertex -4.31785 16.9708 11.3
    endloop
  endfacet
  facet normal 0 0 1
    outer loop
      vertex -5.91817 18.8193 11.3
      vertex -6.21842 16.7401 11.3
      vertex -4.31785 16.9708 11.3
    endloop
  endfacet
  facet normal 0 0 1
    outer loop
      vertex -6.31785 18.9708 11.3
      vertex -6.21842 16.7401 11.3
      vertex -5.91817 18.8193 11.3
    endloop
  endfacet
  facet normal -0 0 1
    outer loop
      vertex -8.21842 18.7401 11.3
      vertex -6.21842 16.7401 11.3
      vertex -6.31785 18.9708 11.3
    endloop
  endfacet
  facet normal 0 0 1
    outer loop
      vertex -6.21842 16.7401 11.3
      vertex -8.21842 18.7401 11.3
      vertex -7.79404 15.6525 11.3
    endloop
  endfacet
  facet normal -0 0 1
    outer loop
      vertex -9.79404 17.6525 11.3
      vertex -7.79404 15.6525 11.3
      vertex -8.21842 18.7401 11.3
    endloop
  endfacet
  facet normal 0 0 1
    outer loop
      vertex -7.79404 15.6525 11.3
      vertex -10.6838 15.9573 11.3
      vertex -8.68377 13.9573 11.3
    endloop
  endfacet
  facet normal -0 0 1
    outer loop
      vertex -10.6838 15.9573 11.3
      vertex -7.79404 15.6525 11.3
      vertex -9.79404 17.6525 11.3
    endloop
  endfacet
  facet normal -0 0 1
    outer loop
      vertex -5.91817 -18.8193 11.3
      vertex -3.88377 -30.9573 11.3
      vertex -3.88377 -16.8062 11.3
    endloop
  endfacet
  facet normal 0 0 1
    outer loop
      vertex -5.91817 -18.8193 11.3
      vertex -3.88377 -16.8062 11.3
      vertex -4.31785 -16.9708 11.3
    endloop
  endfacet
  facet normal 0 -0 1
    outer loop
      vertex -5.27684 -32.8557 11.3
      vertex -3.88377 -30.9573 11.3
      vertex -5.91817 -30.9876 11.3
    endloop
  endfacet
  facet normal 0 0 1
    outer loop
      vertex -3.88377 -30.9573 11.3
      vertex -5.91817 -18.8193 11.3
      vertex -5.91817 -30.9876 11.3
    endloop
  endfacet
  facet normal 0 0 1
    outer loop
      vertex -6.21842 -16.7401 11.3
      vertex -5.91817 -18.8193 11.3
      vertex -4.31785 -16.9708 11.3
    endloop
  endfacet
  facet normal 0 0 1
    outer loop
      vertex -6.21842 -16.7401 11.3
      vertex -6.31785 -18.9708 11.3
      vertex -5.91817 -18.8193 11.3
    endloop
  endfacet
  facet normal 0 0 1
    outer loop
      vertex -8.21842 -18.7401 11.3
      vertex -6.21842 -16.7401 11.3
      vertex -7.79404 -15.6525 11.3
    endloop
  endfacet
  facet normal 0 0 1
    outer loop
      vertex -6.21842 -16.7401 11.3
      vertex -8.21842 -18.7401 11.3
      vertex -6.31785 -18.9708 11.3
    endloop
  endfacet
  facet normal 0 0 1
    outer loop
      vertex -10.6838 -15.9573 11.3
      vertex -7.79404 -15.6525 11.3
      vertex -8.68377 -13.9573 11.3
    endloop
  endfacet
  facet normal 0 0 1
    outer loop
      vertex -7.79404 -15.6525 11.3
      vertex -9.79404 -17.6525 11.3
      vertex -8.21842 -18.7401 11.3
    endloop
  endfacet
  facet normal 0 0 1
    outer loop
      vertex -8.68377 13.9573 11.3
      vertex -10.6838 15.9573 11.3
      vertex -8.68377 -13.9573 11.3
    endloop
  endfacet
  facet normal 0 0 1
    outer loop
      vertex -10.6838 -15.9573 11.3
      vertex -8.68377 -13.9573 11.3
      vertex -10.6838 15.9573 11.3
    endloop
  endfacet
  facet normal 0 0 1
    outer loop
      vertex -7.79404 -15.6525 11.3
      vertex -10.6838 -15.9573 11.3
      vertex -9.79404 -17.6525 11.3
    endloop
  endfacet
  facet normal -0 0 1
    outer loop
      vertex 4 -30 11.3
      vertex 5.6749 -31.9482 11.3
      vertex 6 -30 11.3
    endloop
  endfacet
  facet normal 0 0 1
    outer loop
      vertex 5.6749 -31.9482 11.3
      vertex 4 -30 11.3
      vertex 3.54182 -31.8589 11.3
    endloop
  endfacet
  facet normal 0 0 1
    outer loop
      vertex 5.6749 -31.9482 11.3
      vertex 3.54182 -31.8589 11.3
      vertex 4.73484 -33.6853 11.3
    endloop
  endfacet
  facet normal -0 0 1
    outer loop
      vertex 2.27226 -33.2919 11.3
      vertex 4.73484 -33.6853 11.3
      vertex 3.54182 -31.8589 11.3
    endloop
  endfacet
  facet normal 0 0 1
    outer loop
      vertex 4.73484 -33.6853 11.3
      vertex 2.27226 -33.2919 11.3
      vertex 3.28169 -35.023 11.3
    endloop
  endfacet
  facet normal 0 0 1
    outer loop
      vertex 2.27226 -33.2919 11.3
      vertex 1.47291 -35.8164 11.3
      vertex 3.28169 -35.023 11.3
    endloop
  endfacet
  facet normal -0 0 1
    outer loop
      vertex 0.482146 -33.9708 11.3
      vertex 1.47291 -35.8164 11.3
      vertex 2.27226 -33.2919 11.3
    endloop
  endfacet
  facet normal 0 0 1
    outer loop
      vertex 0.482146 -33.9708 11.3
      vertex -0.495476 -35.9795 11.3
      vertex 1.47291 -35.8164 11.3
    endloop
  endfacet
  facet normal 0 0 1
    outer loop
      vertex -1.41842 -33.7401 11.3
      vertex -0.495476 -35.9795 11.3
      vertex 0.482146 -33.9708 11.3
    endloop
  endfacet
  facet normal 0 0 1
    outer loop
      vertex -1.41842 -33.7401 11.3
      vertex -2.41017 -35.4946 11.3
      vertex -0.495476 -35.9795 11.3
    endloop
  endfacet
  facet normal 0 0 1
    outer loop
      vertex -4.06369 -34.4143 11.3
      vertex -1.41842 -33.7401 11.3
      vertex -2.99404 -32.6525 11.3
    endloop
  endfacet
  facet normal 0 0 1
    outer loop
      vertex -4.06369 -34.4143 11.3
      vertex -2.99404 -32.6525 11.3
      vertex -3.88377 -30.9573 11.3
    endloop
  endfacet
  facet normal 0 0 1
    outer loop
      vertex -1.41842 -33.7401 11.3
      vertex -4.06369 -34.4143 11.3
      vertex -2.41017 -35.4946 11.3
    endloop
  endfacet
  facet normal 0 0 1
    outer loop
      vertex -3.88377 -30.9573 11.3
      vertex -5.27684 -32.8557 11.3
      vertex -4.06369 -34.4143 11.3
    endloop
  endfacet
  facet normal 0.401694 -0.915774 0
    outer loop
      vertex 1.47291 -35.8164 0
      vertex 3.28169 -35.023 11.3
      vertex 1.47291 -35.8164 11.3
    endloop
  endfacet
  facet normal 0.401694 -0.915774 0
    outer loop
      vertex 3.28169 -35.023 11.3
      vertex 1.47291 -35.8164 0
      vertex 3.28169 -35.023 0
    endloop
  endfacet
  facet normal 0.986361 -0.164596 0
    outer loop
      vertex 5.6749 -31.9482 11.3
      vertex 6 -30 0
      vertex 6 -30 11.3
    endloop
  endfacet
  facet normal 0.986361 -0.164596 0
    outer loop
      vertex 6 -30 0
      vertex 5.6749 -31.9482 11.3
      vertex 5.6749 -31.9482 0
    endloop
  endfacet
  facet normal -0.546949 -0.837166 0
    outer loop
      vertex -4.06369 -34.4143 0
      vertex -2.41017 -35.4946 11.3
      vertex -4.06369 -34.4143 11.3
    endloop
  endfacet
  facet normal -0.546949 -0.837166 -0
    outer loop
      vertex -2.41017 -35.4946 11.3
      vertex -4.06369 -34.4143 0
      vertex -2.41017 -35.4946 0
    endloop
  endfacet
  facet normal -0.945816 -0.324704 0
    outer loop
      vertex -5.27684 -32.8557 0
      vertex -5.91817 -30.9876 11.3
      vertex -5.91817 -30.9876 0
    endloop
  endfacet
  facet normal -0.945816 -0.324704 0
    outer loop
      vertex -5.91817 -30.9876 11.3
      vertex -5.27684 -32.8557 0
      vertex -5.27684 -32.8557 11.3
    endloop
  endfacet
  facet normal 0.677276 -0.735729 0
    outer loop
      vertex 3.28169 -35.023 0
      vertex 4.73484 -33.6853 11.3
      vertex 3.28169 -35.023 11.3
    endloop
  endfacet
  facet normal 0.677276 -0.735729 0
    outer loop
      vertex 4.73484 -33.6853 11.3
      vertex 3.28169 -35.023 0
      vertex 4.73484 -33.6853 0
    endloop
  endfacet
  facet normal -0.245501 -0.969396 0
    outer loop
      vertex -2.41017 -35.4946 0
      vertex -0.495476 -35.9795 11.3
      vertex -2.41017 -35.4946 11.3
    endloop
  endfacet
  facet normal -0.245501 -0.969396 -0
    outer loop
      vertex -0.495476 -35.9795 11.3
      vertex -2.41017 -35.4946 0
      vertex -0.495476 -35.9795 0
    endloop
  endfacet
  facet normal -0.945816 0.324704 0
    outer loop
      vertex -5.91817 30.9876 0
      vertex -5.27684 32.8557 11.3
      vertex -5.27684 32.8557 0
    endloop
  endfacet
  facet normal -0.945816 0.324704 0
    outer loop
      vertex -5.27684 32.8557 11.3
      vertex -5.91817 30.9876 0
      vertex -5.91817 30.9876 11.3
    endloop
  endfacet
  facet normal 0.0825768 0.996585 -0
    outer loop
      vertex 1.47291 35.8164 0
      vertex -0.495476 35.9795 11.3
      vertex 1.47291 35.8164 11.3
    endloop
  endfacet
  facet normal 0.0825768 0.996585 0
    outer loop
      vertex -0.495476 35.9795 11.3
      vertex 1.47291 35.8164 0
      vertex -0.495476 35.9795 0
    endloop
  endfacet
  facet normal -0.546949 0.837166 0
    outer loop
      vertex -2.41017 35.4946 0
      vertex -4.06369 34.4143 11.3
      vertex -2.41017 35.4946 11.3
    endloop
  endfacet
  facet normal -0.546949 0.837166 0
    outer loop
      vertex -4.06369 34.4143 11.3
      vertex -2.41017 35.4946 0
      vertex -4.06369 34.4143 0
    endloop
  endfacet
  facet normal -0.245501 0.969396 0
    outer loop
      vertex -0.495476 35.9795 0
      vertex -2.41017 35.4946 11.3
      vertex -0.495476 35.9795 11.3
    endloop
  endfacet
  facet normal -0.245501 0.969396 0
    outer loop
      vertex -2.41017 35.4946 11.3
      vertex -0.495476 35.9795 0
      vertex -2.41017 35.4946 0
    endloop
  endfacet
  facet normal -0.78913 0.614226 0
    outer loop
      vertex -5.27684 32.8557 0
      vertex -4.06369 34.4143 11.3
      vertex -4.06369 34.4143 0
    endloop
  endfacet
  facet normal -0.78913 0.614226 0
    outer loop
      vertex -4.06369 34.4143 11.3
      vertex -5.27684 32.8557 0
      vertex -5.27684 32.8557 11.3
    endloop
  endfacet
  facet normal 0.401694 0.915774 -0
    outer loop
      vertex 3.28169 35.023 0
      vertex 1.47291 35.8164 11.3
      vertex 3.28169 35.023 11.3
    endloop
  endfacet
  facet normal 0.401694 0.915774 0
    outer loop
      vertex 1.47291 35.8164 11.3
      vertex 3.28169 35.023 0
      vertex 1.47291 35.8164 0
    endloop
  endfacet
  facet normal 0.677276 0.735729 -0
    outer loop
      vertex 4.73484 33.6853 0
      vertex 3.28169 35.023 11.3
      vertex 4.73484 33.6853 11.3
    endloop
  endfacet
  facet normal 0.677276 0.735729 0
    outer loop
      vertex 3.28169 35.023 11.3
      vertex 4.73484 33.6853 0
      vertex 3.28169 35.023 0
    endloop
  endfacet
  facet normal 0.879476 0.475943 0
    outer loop
      vertex 5.6749 31.9482 11.3
      vertex 4.73484 33.6853 0
      vertex 4.73484 33.6853 11.3
    endloop
  endfacet
  facet normal 0.879476 0.475943 0
    outer loop
      vertex 4.73484 33.6853 0
      vertex 5.6749 31.9482 11.3
      vertex 5.6749 31.9482 0
    endloop
  endfacet
  facet normal -1 0 0
    outer loop
      vertex -10.6838 -15.9573 0
      vertex -10.6838 15.9573 11.3
      vertex -10.6838 15.9573 0
    endloop
  endfacet
  facet normal -1 -0 0
    outer loop
      vertex -10.6838 15.9573 11.3
      vertex -10.6838 -15.9573 0
      vertex -10.6838 -15.9573 11.3
    endloop
  endfacet
  facet normal -0.568075 -0.822977 0
    outer loop
      vertex -9.79404 -17.6525 0
      vertex -8.21842 -18.7401 11.3
      vertex -9.79404 -17.6525 11.3
    endloop
  endfacet
  facet normal -0.568075 -0.822977 -0
    outer loop
      vertex -8.21842 -18.7401 11.3
      vertex -9.79404 -17.6525 0
      vertex -8.21842 -18.7401 0
    endloop
  endfacet
  facet normal -0.1205 -0.992713 0
    outer loop
      vertex -8.21842 -18.7401 0
      vertex -6.31785 -18.9708 11.3
      vertex -8.21842 -18.7401 11.3
    endloop
  endfacet
  facet normal -0.1205 -0.992713 -0
    outer loop
      vertex -6.31785 -18.9708 11.3
      vertex -8.21842 -18.7401 0
      vertex -6.31785 -18.9708 0
    endloop
  endfacet
  facet normal -0.885445 -0.464744 0
    outer loop
      vertex -9.79404 -17.6525 0
      vertex -10.6838 -15.9573 11.3
      vertex -10.6838 -15.9573 0
    endloop
  endfacet
  facet normal -0.885445 -0.464744 0
    outer loop
      vertex -10.6838 -15.9573 11.3
      vertex -9.79404 -17.6525 0
      vertex -9.79404 -17.6525 11.3
    endloop
  endfacet
  facet normal -0.885445 0.464744 0
    outer loop
      vertex -10.6838 15.9573 0
      vertex -9.79404 17.6525 11.3
      vertex -9.79404 17.6525 0
    endloop
  endfacet
  facet normal -0.885445 0.464744 0
    outer loop
      vertex -9.79404 17.6525 11.3
      vertex -10.6838 15.9573 0
      vertex -10.6838 15.9573 11.3
    endloop
  endfacet
  facet normal 0.354444 -0.935077 0
    outer loop
      vertex -6.31785 -18.9708 0
      vertex -5.91817 -18.8193 11.3
      vertex -6.31785 -18.9708 11.3
    endloop
  endfacet
  facet normal 0.354444 -0.935077 0
    outer loop
      vertex -5.91817 -18.8193 11.3
      vertex -6.31785 -18.9708 0
      vertex -5.91817 -18.8193 0
    endloop
  endfacet
  facet normal -0.568075 0.822977 0
    outer loop
      vertex -8.21842 18.7401 0
      vertex -9.79404 17.6525 11.3
      vertex -8.21842 18.7401 11.3
    endloop
  endfacet
  facet normal -0.568075 0.822977 0
    outer loop
      vertex -9.79404 17.6525 11.3
      vertex -8.21842 18.7401 0
      vertex -9.79404 17.6525 0
    endloop
  endfacet
  facet normal -0.1205 0.992713 0
    outer loop
      vertex -6.31785 18.9708 0
      vertex -8.21842 18.7401 11.3
      vertex -6.31785 18.9708 11.3
    endloop
  endfacet
  facet normal -0.1205 0.992713 0
    outer loop
      vertex -8.21842 18.7401 11.3
      vertex -6.31785 18.9708 0
      vertex -8.21842 18.7401 0
    endloop
  endfacet
  facet normal 0.354444 0.935077 -0
    outer loop
      vertex -5.91817 18.8193 0
      vertex -6.31785 18.9708 11.3
      vertex -5.91817 18.8193 11.3
    endloop
  endfacet
  facet normal 0.354444 0.935077 0
    outer loop
      vertex -6.31785 18.9708 11.3
      vertex -5.91817 18.8193 0
      vertex -6.31785 18.9708 0
    endloop
  endfacet
  facet normal 0 -0.309006 -0.95106
    outer loop
      vertex -12 -24 6.5
      vertex -3.88377 -23.1183 6.21353
      vertex -3.88377 -24 6.5
    endloop
  endfacet
  facet normal -0 -0.309006 -0.95106
    outer loop
      vertex -3.88377 -23.1183 6.21353
      vertex -12 -24 6.5
      vertex -12 -23.1183 6.21353
    endloop
  endfacet
  facet normal 0 -0.309006 0.95106
    outer loop
      vertex -12 -23.1183 3.78647
      vertex -3.88377 -24 3.5
      vertex -3.88377 -23.1183 3.78647
    endloop
  endfacet
  facet normal 0 -0.309006 0.95106
    outer loop
      vertex -3.88377 -24 3.5
      vertex -12 -23.1183 3.78647
      vertex -12 -24 3.5
    endloop
  endfacet
  facet normal 0 1 -0
    outer loop
      vertex -3.88377 -25.4266 4.53647
      vertex -12 -25.4266 5.46353
      vertex -3.88377 -25.4266 5.46353
    endloop
  endfacet
  facet normal 0 1 0
    outer loop
      vertex -12 -25.4266 5.46353
      vertex -3.88377 -25.4266 4.53647
      vertex -12 -25.4266 4.53647
    endloop
  endfacet
  facet normal 0 -1 0
    outer loop
      vertex -12 -22.5734 4.53647
      vertex -3.88377 -22.5734 5.46353
      vertex -12 -22.5734 5.46353
    endloop
  endfacet
  facet normal 0 -1 -0
    outer loop
      vertex -3.88377 -22.5734 5.46353
      vertex -12 -22.5734 4.53647
      vertex -3.88377 -22.5734 4.53647
    endloop
  endfacet
  facet normal 0 -0.809021 -0.58778
    outer loop
      vertex -12 -22.5734 5.46353
      vertex -3.88377 -23.1183 6.21353
      vertex -12 -23.1183 6.21353
    endloop
  endfacet
  facet normal 0 -0.809021 -0.58778
    outer loop
      vertex -3.88377 -23.1183 6.21353
      vertex -12 -22.5734 5.46353
      vertex -3.88377 -22.5734 5.46353
    endloop
  endfacet
  facet normal 0 -0.809021 0.58778
    outer loop
      vertex -12 -23.1183 3.78647
      vertex -3.88377 -22.5734 4.53647
      vertex -12 -22.5734 4.53647
    endloop
  endfacet
  facet normal 0 -0.809021 0.58778
    outer loop
      vertex -3.88377 -22.5734 4.53647
      vertex -12 -23.1183 3.78647
      vertex -3.88377 -23.1183 3.78647
    endloop
  endfacet
  facet normal -0 0.309006 0.95106
    outer loop
      vertex -12 -24 3.5
      vertex -3.88377 -24.8817 3.78647
      vertex -3.88377 -24 3.5
    endloop
  endfacet
  facet normal 0 0.309006 0.95106
    outer loop
      vertex -3.88377 -24.8817 3.78647
      vertex -12 -24 3.5
      vertex -12 -24.8817 3.78647
    endloop
  endfacet
  facet normal 0 0.809021 -0.58778
    outer loop
      vertex -3.88377 -25.4266 5.46353
      vertex -12 -24.8817 6.21353
      vertex -3.88377 -24.8817 6.21353
    endloop
  endfacet
  facet normal 0 0.809021 -0.58778
    outer loop
      vertex -12 -24.8817 6.21353
      vertex -3.88377 -25.4266 5.46353
      vertex -12 -25.4266 5.46353
    endloop
  endfacet
  facet normal 0 0.809021 0.58778
    outer loop
      vertex -3.88377 -24.8817 3.78647
      vertex -12 -25.4266 4.53647
      vertex -3.88377 -25.4266 4.53647
    endloop
  endfacet
  facet normal 0 0.809021 0.58778
    outer loop
      vertex -12 -25.4266 4.53647
      vertex -3.88377 -24.8817 3.78647
      vertex -12 -24.8817 3.78647
    endloop
  endfacet
  facet normal 0 0.309006 -0.95106
    outer loop
      vertex -12 -24.8817 6.21353
      vertex -3.88377 -24 6.5
      vertex -3.88377 -24.8817 6.21353
    endloop
  endfacet
  facet normal 0 0.309006 -0.95106
    outer loop
      vertex -3.88377 -24 6.5
      vertex -12 -24.8817 6.21353
      vertex -12 -24 6.5
    endloop
  endfacet
  facet normal 0 -0.309006 -0.95106
    outer loop
      vertex -12 24 7.8
      vertex -3.88377 24.8817 7.51353
      vertex -3.88377 24 7.8
    endloop
  endfacet
  facet normal -0 -0.309006 -0.95106
    outer loop
      vertex -3.88377 24.8817 7.51353
      vertex -12 24 7.8
      vertex -12 24.8817 7.51353
    endloop
  endfacet
  facet normal 0 0.809021 -0.58778
    outer loop
      vertex -3.88377 22.5734 6.76353
      vertex -12 23.1183 7.51353
      vertex -3.88377 23.1183 7.51353
    endloop
  endfacet
  facet normal 0 0.809021 -0.58778
    outer loop
      vertex -12 23.1183 7.51353
      vertex -3.88377 22.5734 6.76353
      vertex -12 22.5734 6.76353
    endloop
  endfacet
  facet normal 0 -1 0
    outer loop
      vertex -12 25.4266 5.83647
      vertex -3.88377 25.4266 6.76353
      vertex -12 25.4266 6.76353
    endloop
  endfacet
  facet normal 0 -1 -0
    outer loop
      vertex -3.88377 25.4266 6.76353
      vertex -12 25.4266 5.83647
      vertex -3.88377 25.4266 5.83647
    endloop
  endfacet
  facet normal 0 -0.809021 -0.58778
    outer loop
      vertex -12 25.4266 6.76353
      vertex -3.88377 24.8817 7.51353
      vertex -12 24.8817 7.51353
    endloop
  endfacet
  facet normal 0 -0.809021 -0.58778
    outer loop
      vertex -3.88377 24.8817 7.51353
      vertex -12 25.4266 6.76353
      vertex -3.88377 25.4266 6.76353
    endloop
  endfacet
  facet normal 0 0.309006 -0.95106
    outer loop
      vertex -12 23.1183 7.51353
      vertex -3.88377 24 7.8
      vertex -3.88377 23.1183 7.51353
    endloop
  endfacet
  facet normal 0 0.309006 -0.95106
    outer loop
      vertex -3.88377 24 7.8
      vertex -12 23.1183 7.51353
      vertex -12 24 7.8
    endloop
  endfacet
  facet normal 0 -0.309006 0.95106
    outer loop
      vertex -12 24.8817 5.08647
      vertex -3.88377 24 4.8
      vertex -3.88377 24.8817 5.08647
    endloop
  endfacet
  facet normal 0 -0.309006 0.95106
    outer loop
      vertex -3.88377 24 4.8
      vertex -12 24.8817 5.08647
      vertex -12 24 4.8
    endloop
  endfacet
  facet normal -0 0.309006 0.95106
    outer loop
      vertex -12 24 4.8
      vertex -3.88377 23.1183 5.08647
      vertex -3.88377 24 4.8
    endloop
  endfacet
  facet normal 0 0.309006 0.95106
    outer loop
      vertex -3.88377 23.1183 5.08647
      vertex -12 24 4.8
      vertex -12 23.1183 5.08647
    endloop
  endfacet
  facet normal 0 -0.809021 0.58778
    outer loop
      vertex -12 24.8817 5.08647
      vertex -3.88377 25.4266 5.83647
      vertex -12 25.4266 5.83647
    endloop
  endfacet
  facet normal 0 -0.809021 0.58778
    outer loop
      vertex -3.88377 25.4266 5.83647
      vertex -12 24.8817 5.08647
      vertex -3.88377 24.8817 5.08647
    endloop
  endfacet
  facet normal 0 0.809021 0.58778
    outer loop
      vertex -3.88377 23.1183 5.08647
      vertex -12 22.5734 5.83647
      vertex -3.88377 22.5734 5.83647
    endloop
  endfacet
  facet normal 0 0.809021 0.58778
    outer loop
      vertex -12 22.5734 5.83647
      vertex -3.88377 23.1183 5.08647
      vertex -12 23.1183 5.08647
    endloop
  endfacet
  facet normal 0 1 -0
    outer loop
      vertex -3.88377 22.5734 5.83647
      vertex -12 22.5734 6.76353
      vertex -3.88377 22.5734 6.76353
    endloop
  endfacet
  facet normal 0 1 0
    outer loop
      vertex -12 22.5734 6.76353
      vertex -3.88377 22.5734 5.83647
      vertex -12 22.5734 5.83647
    endloop
  endfacet
  facet normal 1 0 0
    outer loop
      vertex -3.88377 -16.8062 11.3
      vertex -3.88377 -22.5734 5.46353
      vertex -3.88377 -16.8062 0
    endloop
  endfacet
  facet normal 1 0 0
    outer loop
      vertex -3.88377 -16.8062 11.3
      vertex -3.88377 -23.1183 6.21353
      vertex -3.88377 -22.5734 5.46353
    endloop
  endfacet
  facet normal 1 0 0
    outer loop
      vertex -3.88377 -16.8062 11.3
      vertex -3.88377 -24 6.5
      vertex -3.88377 -23.1183 6.21353
    endloop
  endfacet
  facet normal 1 -0 0
    outer loop
      vertex -3.88377 -30.9573 11.3
      vertex -3.88377 -24 6.5
      vertex -3.88377 -16.8062 11.3
    endloop
  endfacet
  facet normal 1 0 0
    outer loop
      vertex -3.88377 -30.9573 0
      vertex -3.88377 -25.4266 5.46353
      vertex -3.88377 -30.9573 11.3
    endloop
  endfacet
  facet normal 1 0 0
    outer loop
      vertex -3.88377 -24.8817 6.21353
      vertex -3.88377 -30.9573 11.3
      vertex -3.88377 -25.4266 5.46353
    endloop
  endfacet
  facet normal 1 0 0
    outer loop
      vertex -3.88377 -24 6.5
      vertex -3.88377 -30.9573 11.3
      vertex -3.88377 -24.8817 6.21353
    endloop
  endfacet
  facet normal 1 -0 0
    outer loop
      vertex -3.88377 -22.5734 4.53647
      vertex -3.88377 -16.8062 0
      vertex -3.88377 -22.5734 5.46353
    endloop
  endfacet
  facet normal 1 -0 0
    outer loop
      vertex -3.88377 -23.1183 3.78647
      vertex -3.88377 -16.8062 0
      vertex -3.88377 -22.5734 4.53647
    endloop
  endfacet
  facet normal 1 -0 0
    outer loop
      vertex -3.88377 -24 3.5
      vertex -3.88377 -16.8062 0
      vertex -3.88377 -23.1183 3.78647
    endloop
  endfacet
  facet normal 1 0 0
    outer loop
      vertex -3.88377 -30.9573 0
      vertex -3.88377 -24 3.5
      vertex -3.88377 -24.8817 3.78647
    endloop
  endfacet
  facet normal 1 0 0
    outer loop
      vertex -3.88377 -25.4266 5.46353
      vertex -3.88377 -30.9573 0
      vertex -3.88377 -25.4266 4.53647
    endloop
  endfacet
  facet normal 1 0 0
    outer loop
      vertex -3.88377 -24 3.5
      vertex -3.88377 -30.9573 0
      vertex -3.88377 -16.8062 0
    endloop
  endfacet
  facet normal 1 0 0
    outer loop
      vertex -3.88377 -25.4266 4.53647
      vertex -3.88377 -30.9573 0
      vertex -3.88377 -24.8817 3.78647
    endloop
  endfacet
  facet normal 1 0 0
    outer loop
      vertex -3.88377 25.4266 5.83647
      vertex -3.88377 30.9573 11.3
      vertex -3.88377 25.4266 6.76353
    endloop
  endfacet
  facet normal 1 0 0
    outer loop
      vertex -3.88377 30.9573 11.3
      vertex -3.88377 24.8817 7.51353
      vertex -3.88377 25.4266 6.76353
    endloop
  endfacet
  facet normal 1 0 0
    outer loop
      vertex -3.88377 30.9573 11.3
      vertex -3.88377 24 7.8
      vertex -3.88377 24.8817 7.51353
    endloop
  endfacet
  facet normal 1 -0 0
    outer loop
      vertex -3.88377 16.8062 11.3
      vertex -3.88377 24 7.8
      vertex -3.88377 30.9573 11.3
    endloop
  endfacet
  facet normal 1 0 0
    outer loop
      vertex -3.88377 22.5734 6.76353
      vertex -3.88377 16.8062 11.3
      vertex -3.88377 22.5734 5.83647
    endloop
  endfacet
  facet normal 1 0 0
    outer loop
      vertex -3.88377 23.1183 7.51353
      vertex -3.88377 16.8062 11.3
      vertex -3.88377 22.5734 6.76353
    endloop
  endfacet
  facet normal 1 0 0
    outer loop
      vertex -3.88377 24 7.8
      vertex -3.88377 16.8062 11.3
      vertex -3.88377 23.1183 7.51353
    endloop
  endfacet
  facet normal 1 0 0
    outer loop
      vertex -3.88377 30.9573 11.3
      vertex -3.88377 25.4266 5.83647
      vertex -3.88377 30.9573 0
    endloop
  endfacet
  facet normal 1 -0 0
    outer loop
      vertex -3.88377 24.8817 5.08647
      vertex -3.88377 30.9573 0
      vertex -3.88377 25.4266 5.83647
    endloop
  endfacet
  facet normal 1 -0 0
    outer loop
      vertex -3.88377 24 4.8
      vertex -3.88377 30.9573 0
      vertex -3.88377 24.8817 5.08647
    endloop
  endfacet
  facet normal 1 0 0
    outer loop
      vertex -3.88377 16.8062 0
      vertex -3.88377 24 4.8
      vertex -3.88377 23.1183 5.08647
    endloop
  endfacet
  facet normal 1 0 0
    outer loop
      vertex -3.88377 16.8062 0
      vertex -3.88377 22.5734 5.83647
      vertex -3.88377 16.8062 11.3
    endloop
  endfacet
  facet normal 1 0 0
    outer loop
      vertex -3.88377 24 4.8
      vertex -3.88377 16.8062 0
      vertex -3.88377 30.9573 0
    endloop
  endfacet
  facet normal 1 0 0
    outer loop
      vertex -3.88377 22.5734 5.83647
      vertex -3.88377 16.8062 0
      vertex -3.88377 23.1183 5.08647
    endloop
  endfacet
  facet normal 0.568075 0.822977 -0
    outer loop
      vertex -1.41842 -33.7401 0
      vertex -2.99404 -32.6525 11.3
      vertex -1.41842 -33.7401 11.3
    endloop
  endfacet
  facet normal 0.568075 0.822977 0
    outer loop
      vertex -2.99404 -32.6525 11.3
      vertex -1.41842 -33.7401 0
      vertex -2.99404 -32.6525 0
    endloop
  endfacet
  facet normal -0.970942 -0.239317 0
    outer loop
      vertex 4 30 0
      vertex 3.54182 31.8589 11.3
      vertex 3.54182 31.8589 0
    endloop
  endfacet
  facet normal -0.970942 -0.239317 0
    outer loop
      vertex 3.54182 31.8589 11.3
      vertex 4 30 0
      vertex 4 30 11.3
    endloop
  endfacet
  facet normal -0.970942 0.239317 0
    outer loop
      vertex 3.54182 -31.8589 0
      vertex 4 -30 11.3
      vertex 4 -30 0
    endloop
  endfacet
  facet normal -0.970942 0.239317 0
    outer loop
      vertex 4 -30 11.3
      vertex 3.54182 -31.8589 0
      vertex 3.54182 -31.8589 11.3
    endloop
  endfacet
  facet normal -0.748502 0.663132 0
    outer loop
      vertex 2.27226 -33.2919 0
      vertex 3.54182 -31.8589 11.3
      vertex 3.54182 -31.8589 0
    endloop
  endfacet
  facet normal -0.748502 0.663132 0
    outer loop
      vertex 3.54182 -31.8589 11.3
      vertex 2.27226 -33.2919 0
      vertex 2.27226 -33.2919 11.3
    endloop
  endfacet
  facet normal 0.1205 0.992713 -0
    outer loop
      vertex 0.482146 -33.9708 0
      vertex -1.41842 -33.7401 11.3
      vertex 0.482146 -33.9708 11.3
    endloop
  endfacet
  facet normal 0.1205 0.992713 0
    outer loop
      vertex -1.41842 -33.7401 11.3
      vertex 0.482146 -33.9708 0
      vertex -1.41842 -33.7401 0
    endloop
  endfacet
  facet normal 0.885452 0.464732 0
    outer loop
      vertex -2.99404 -32.6525 11.3
      vertex -3.88377 -30.9573 0
      vertex -3.88377 -30.9573 11.3
    endloop
  endfacet
  facet normal 0.885452 0.464732 0
    outer loop
      vertex -3.88377 -30.9573 0
      vertex -2.99404 -32.6525 11.3
      vertex -2.99404 -32.6525 0
    endloop
  endfacet
  facet normal 0.885452 -0.464732 0
    outer loop
      vertex -3.88377 30.9573 11.3
      vertex -2.99404 32.6525 0
      vertex -2.99404 32.6525 11.3
    endloop
  endfacet
  facet normal 0.885452 -0.464732 0
    outer loop
      vertex -2.99404 32.6525 0
      vertex -3.88377 30.9573 11.3
      vertex -3.88377 30.9573 0
    endloop
  endfacet
  facet normal 0.1205 -0.992713 0
    outer loop
      vertex -1.41842 33.7401 0
      vertex 0.482146 33.9708 11.3
      vertex -1.41842 33.7401 11.3
    endloop
  endfacet
  facet normal 0.1205 -0.992713 0
    outer loop
      vertex 0.482146 33.9708 11.3
      vertex -1.41842 33.7401 0
      vertex 0.482146 33.9708 0
    endloop
  endfacet
  facet normal -0.354605 0.935016 0
    outer loop
      vertex 2.27226 -33.2919 0
      vertex 0.482146 -33.9708 11.3
      vertex 2.27226 -33.2919 11.3
    endloop
  endfacet
  facet normal -0.354605 0.935016 0
    outer loop
      vertex 0.482146 -33.9708 11.3
      vertex 2.27226 -33.2919 0
      vertex 0.482146 -33.9708 0
    endloop
  endfacet
  facet normal -0.748502 -0.663132 0
    outer loop
      vertex 3.54182 31.8589 0
      vertex 2.27226 33.2919 11.3
      vertex 2.27226 33.2919 0
    endloop
  endfacet
  facet normal -0.748502 -0.663132 0
    outer loop
      vertex 2.27226 33.2919 11.3
      vertex 3.54182 31.8589 0
      vertex 3.54182 31.8589 11.3
    endloop
  endfacet
  facet normal 0.568075 -0.822977 0
    outer loop
      vertex -2.99404 32.6525 0
      vertex -1.41842 33.7401 11.3
      vertex -2.99404 32.6525 11.3
    endloop
  endfacet
  facet normal 0.568075 -0.822977 0
    outer loop
      vertex -1.41842 33.7401 11.3
      vertex -2.99404 32.6525 0
      vertex -1.41842 33.7401 0
    endloop
  endfacet
  facet normal -0.354605 -0.935016 0
    outer loop
      vertex 0.482146 33.9708 0
      vertex 2.27226 33.2919 11.3
      vertex 0.482146 33.9708 11.3
    endloop
  endfacet
  facet normal -0.354605 -0.935016 -0
    outer loop
      vertex 2.27226 33.2919 11.3
      vertex 0.482146 33.9708 0
      vertex 2.27226 33.2919 0
    endloop
  endfacet
  facet normal 0 -1 0
    outer loop
      vertex 4 30 0
      vertex 6 30 11.3
      vertex 4 30 11.3
    endloop
  endfacet
  facet normal 0 -1 -0
    outer loop
      vertex 6 30 11.3
      vertex 4 30 0
      vertex 6 30 0
    endloop
  endfacet
  facet normal 0 1 -0
    outer loop
      vertex 6 -30 0
      vertex 4 -30 11.3
      vertex 6 -30 11.3
    endloop
  endfacet
  facet normal 0 1 0
    outer loop
      vertex 4 -30 11.3
      vertex 6 -30 0
      vertex 4 -30 0
    endloop
  endfacet
  facet normal 1 -0 0
    outer loop
      vertex -8.68377 -13.9573 11.3
      vertex -8.68377 13.9573 0
      vertex -8.68377 13.9573 11.3
    endloop
  endfacet
  facet normal 1 0 0
    outer loop
      vertex -8.68377 13.9573 0
      vertex -8.68377 -13.9573 11.3
      vertex -8.68377 -13.9573 0
    endloop
  endfacet
  facet normal -0.354558 0.935034 0
    outer loop
      vertex -3.88377 -16.8062 0
      vertex -4.31785 -16.9708 11.3
      vertex -3.88377 -16.8062 11.3
    endloop
  endfacet
  facet normal -0.354558 0.935034 0
    outer loop
      vertex -4.31785 -16.9708 11.3
      vertex -3.88377 -16.8062 0
      vertex -4.31785 -16.9708 0
    endloop
  endfacet
  facet normal 0.885452 0.464732 0
    outer loop
      vertex -7.79404 -15.6525 11.3
      vertex -8.68377 -13.9573 0
      vertex -8.68377 -13.9573 11.3
    endloop
  endfacet
  facet normal 0.885452 0.464732 0
    outer loop
      vertex -8.68377 -13.9573 0
      vertex -7.79404 -15.6525 11.3
      vertex -7.79404 -15.6525 0
    endloop
  endfacet
  facet normal 0.1205 0.992713 -0
    outer loop
      vertex -4.31785 -16.9708 0
      vertex -6.21842 -16.7401 11.3
      vertex -4.31785 -16.9708 11.3
    endloop
  endfacet
  facet normal 0.1205 0.992713 0
    outer loop
      vertex -6.21842 -16.7401 11.3
      vertex -4.31785 -16.9708 0
      vertex -6.21842 -16.7401 0
    endloop
  endfacet
  facet normal 0.568075 0.822977 -0
    outer loop
      vertex -6.21842 -16.7401 0
      vertex -7.79404 -15.6525 11.3
      vertex -6.21842 -16.7401 11.3
    endloop
  endfacet
  facet normal 0.568075 0.822977 0
    outer loop
      vertex -7.79404 -15.6525 11.3
      vertex -6.21842 -16.7401 0
      vertex -7.79404 -15.6525 0
    endloop
  endfacet
  facet normal 0.885452 -0.464732 0
    outer loop
      vertex -8.68377 13.9573 11.3
      vertex -7.79404 15.6525 0
      vertex -7.79404 15.6525 11.3
    endloop
  endfacet
  facet normal 0.885452 -0.464732 0
    outer loop
      vertex -7.79404 15.6525 0
      vertex -8.68377 13.9573 11.3
      vertex -8.68377 13.9573 0
    endloop
  endfacet
  facet normal 0.568075 -0.822977 0
    outer loop
      vertex -7.79404 15.6525 0
      vertex -6.21842 16.7401 11.3
      vertex -7.79404 15.6525 11.3
    endloop
  endfacet
  facet normal 0.568075 -0.822977 0
    outer loop
      vertex -6.21842 16.7401 11.3
      vertex -7.79404 15.6525 0
      vertex -6.21842 16.7401 0
    endloop
  endfacet
  facet normal 0.1205 -0.992713 0
    outer loop
      vertex -6.21842 16.7401 0
      vertex -4.31785 16.9708 11.3
      vertex -6.21842 16.7401 11.3
    endloop
  endfacet
  facet normal 0.1205 -0.992713 0
    outer loop
      vertex -4.31785 16.9708 11.3
      vertex -6.21842 16.7401 0
      vertex -4.31785 16.9708 0
    endloop
  endfacet
  facet normal -0.354558 -0.935034 0
    outer loop
      vertex -4.31785 16.9708 0
      vertex -3.88377 16.8062 11.3
      vertex -4.31785 16.9708 11.3
    endloop
  endfacet
  facet normal -0.354558 -0.935034 -0
    outer loop
      vertex -3.88377 16.8062 11.3
      vertex -4.31785 16.9708 0
      vertex -3.88377 16.8062 0
    endloop
  endfacet
endsolid OpenSCAD_Model
